<?xml version="1.0" encoding="UTF-8"?>
<svg width="1031px" height="1040px" viewBox="0 0 1031 1040" version="1.1" xmlns="http://www.w3.org/2000/svg" xmlns:xlink="http://www.w3.org/1999/xlink">
    <title>Shape</title>
    <g id="Page-1" stroke="none" stroke-width="1" fill="none" fill-rule="evenodd">
        <g id="Starting-Page" transform="translate(-190, -20)" fill="#571E52">
            <g id="Group" transform="translate(-238.2437, -123.3316)">
                <path d="M909.226676,177.450668 L913.891239,195.658616 L912.204057,439.828683 L808.070171,378.03577 L805.117602,295.92636 L724.281719,338.246195 L924.882736,458.011824 C934.18705,462.67544 946.468745,463.94057 957.063257,460.9886 L1168.68058,343.753231 L1085.31393,301.433396 L1081.07116,379.3009 L975.25009,438.538746 L972.694505,210.864981 C977.780864,187.596514 986.663383,163.03811 1010.78017,149.493778 C1025.61745,142.721612 1042.96069,148.650358 1056.08597,154.579104 L1328.24337,287.467355 C1351.09477,304.385366 1371.83718,329.36548 1365.03883,361.936372 C1363.35165,382.67458 1343.03103,396.218912 1326.95317,406.389564 L984.132609,597.647434 C961.281213,609.058409 930.366078,611.191766 907.936478,597.647434 L546.904271,382.25287 C532.935394,369.551958 526.161853,355.164207 522.787488,338.246195 C524.052875,320.881668 524.474671,303.963656 538.021752,291.709261 L845.734035,146.566615 C871.538,138.082803 900.765953,151.205425 909.226676,177.450668 Z M1372.33341,856.453317 L1354.24583,851.367991 L1143.59615,727.831779 L1249.1691,668.569127 L1321.76757,707.043959 L1325.53892,615.904995 L1121.4891,729.717071 C1112.80507,735.422559 1105.56011,745.469178 1102.85566,756.06154 L1098.56327,997.924606 L1176.918,946.897701 L1111.58931,904.255382 L1113.17725,783.026171 L1311.64447,894.655278 C1329.26064,910.680257 1346.10765,930.649464 1345.76029,958.308676 C1344.22198,974.532106 1330.40197,986.612856 1318.71575,994.997442 L1067.54889,1164.17756 C1041.472,1175.51411 1009.46516,1180.99634 984.628839,1158.84417 C967.533712,1147.01148 965.945776,1122.65153 965.201431,1103.64977 L970.932888,711.161833 C972.471202,685.660783 986.067906,657.852732 1009.04336,645.176627 L1376.12957,440.275199 C1394.11791,434.544905 1409.94765,435.859648 1426.29844,441.39149 C1440.68911,451.165239 1455.15422,459.996342 1459,477.856999 L1430.86375,816.887 C1425.25635,843.454728 1399.27871,862.208418 1372.33341,856.453317 Z M543.232168,916.857067 L556.655192,903.734446 L769.016862,783.150204 L767.552983,904.180962 L697.931901,947.790733 L774.996435,996.634669 L778.420423,763.056964 C777.559539,751.98242 772.762904,741.581555 764.898152,733.735719 L557.548407,609.083216 L562.585142,702.429956 L632.156602,667.155158 L736.364922,729.171329 L540.45328,845.215987 C517.750753,852.434669 492.046034,856.99906 468.251801,842.884179 C454.977646,833.432915 451.4296,815.473032 450.015345,801.110087 L429,499.041723 C432.250307,470.787155 443.489919,440.349619 475.099776,429.930902 C493.906897,421.02538 515.790644,431.841 532.637656,440.696909 L869.72676,641.902173 C891.039843,655.967441 908.333462,681.691748 907.81242,707.862572 L901.758413,1128.15856 C897.738949,1146.61458 888.657938,1159.66278 875.681521,1171.07375 C860.025462,1178.63973 845.163371,1186.72664 827.745694,1181.14518 L548.169658,987.307437 C527.973093,969.149103 524.722786,937.297597 543.232168,916.857067 L543.232168,916.857067 Z M1098.66252,576.140226 L1110.00137,579.191422 L998.895454,641.480463 C982.767976,634.063329 979.294366,628.829164 977.979356,612.729767 L1086.03346,550.440725 C1082.11324,562.198991 1089.50707,570.906061 1098.66252,576.140226 Z M783.506781,578.199163 L886.350469,641.356431 C904.661359,633.964103 908.13497,623.94229 909.003372,607.371569 L803.554477,544.636011 C803.132681,565.99438 793.530629,573.411514 783.506781,578.199163 Z M958.204587,827.167039 L959.072989,706.533184 C945.352227,694.675692 930.242021,697.032306 917.53853,704.846344 L918.183629,827.51433 C934.236673,816.847548 950.140847,821.064648 958.204587,827.167039 L958.204587,827.167039 Z" id="Shape" fill-rule="nonzero"></path>
            </g>
        </g>
    </g>
</svg>